<?xml version="1.0" encoding="utf-8"?>
<!-- Generated by IcoMoon.io -->
<!DOCTYPE svg PUBLIC "-//W3C//DTD SVG 1.1//EN" "http://www.w3.org/Graphics/SVG/1.1/DTD/svg11.dtd">
<svg version="1.1" xmlns="http://www.w3.org/2000/svg" xmlns:xlink="http://www.w3.org/1999/xlink" width="31" height="28" viewBox="0 0 31 28">
<path fill="#52c222" d="M7.377 8.011h18.338c1.888 0 1.888-1.958 0.074-1.958h-12.675c-0.726 0-1.088-1.088-1.088-1.088s-0.508-1.597-1.525-1.597h-9.44c-1.379 0-1.017 1.597-1.017 1.597s2.106 17.911 2.251 19.001 1.271 1.411 1.271 1.411l2.468-15.84c0.182-1.161 0.98-1.488 1.343-1.524zM29.451 8.699h-21.493c-0.641 0-1.162 0.52-1.162 1.161l-2.25 14.35c0 0.642 0.521 1.162 1.162 1.162h21.493c0.64 0 1.162-0.52 1.162-1.162l2.251-14.35c0-0.641-0.519-1.161-1.162-1.161z"></path>
</svg>
