<?xml version="1.0" encoding="UTF-8" standalone="no"?>
<svg width="21px" height="30px" viewBox="0 0 21 30" version="1.1" xmlns="http://www.w3.org/2000/svg" xmlns:xlink="http://www.w3.org/1999/xlink" xmlns:sketch="http://www.bohemiancoding.com/sketch/ns">
    <!-- Generator: Sketch 3.4.4 (17249) - http://www.bohemiancoding.com/sketch -->
    <title>txt</title>
    <desc>Created with Sketch.</desc>
    <defs></defs>
    <g id="Assets" stroke="none" stroke-width="1" fill="none" fill-rule="evenodd" sketch:type="MSPage">
        <g id="Icons" sketch:type="MSArtboardGroup" transform="translate(-320.000000, -973.000000)">
            <g id="txt" sketch:type="MSLayerGroup" transform="translate(320.000000, 973.000000)">
                <path d="M0,24.6625767 L20.9199828,24.6625767 L20.9199828,29.9919018 L0,29.9919018 L0,24.6625767 Z" id="Fill-251" fill="#718592" sketch:type="MSShapeGroup"></path>
                <path id="Fill-252" fill="#F6F4F3" sketch:type="MSShapeGroup" d="M1.47434483,28.6032515 C1.35268966,28.6032515 1.26724138,28.5077301 1.26724138,28.3814724 C1.26724138,28.2522699 1.35558621,28.1595092 1.47706034,28.1595092 C1.60143103,28.1595092 1.68706034,28.2493252 1.68706034,28.3814724 C1.68706034,28.5077301 1.60414655,28.6032515 1.47706034,28.6032515 L1.47434483,28.6032515"></path>
                <path d="M2.34077586,26.9762577 L1.81034483,26.9762577 L1.81034483,26.6871166 L3.21643966,26.6871166 L3.21643966,26.9762577 L2.68057759,26.9762577 L2.68057759,28.5798773 L2.34077586,28.5798773 L2.34077586,26.9762577" id="Fill-253" fill="#F6F4F3" sketch:type="MSShapeGroup"></path>
                <path d="M4.39660345,28.5798773 L4.19493103,28.2034969 C4.11491379,28.057546 4.06241379,27.956319 4.01009483,27.8469939 L4.00176724,27.8469939 C3.95741379,27.956319 3.90762931,28.057546 3.83322414,28.2034969 L3.64802586,28.5798773 L3.25862069,28.5798773 L3.8109569,27.6222699 L3.28052586,26.6871166 L3.6702931,26.6871166 L3.87178448,27.0774847 C3.93261207,27.1954601 3.97678448,27.2880368 4.02638793,27.3947853 L4.032,27.3947853 C4.08178448,27.2768098 4.12034483,27.1925153 4.1784569,27.0774847 L4.37741379,26.6871166 L4.76681897,26.6871166 L4.22262931,27.6110429 L4.78890517,28.5798773 L4.39660345,28.5798773" id="Fill-254" fill="#F6F4F3" sketch:type="MSShapeGroup"></path>
                <path d="M5.41836207,26.9762577 L4.88793103,26.9762577 L4.88793103,26.6871166 L6.29402586,26.6871166 L6.29402586,26.9762577 L5.75816379,26.9762577 L5.75816379,28.5798773 L5.41836207,28.5798773 L5.41836207,26.9762577" id="Fill-255" fill="#F6F4F3" sketch:type="MSShapeGroup"></path>
                <path d="M0,0.18404908 L0,24.7212883 L20.9199828,24.7212883 L20.9199828,6.66552147 L14.6688621,0.18404908 L0,0.18404908" id="Fill-256" fill="#E5E6E5" sketch:type="MSShapeGroup"></path>
                <path d="M7.60344828,8.28220859 L17.5062155,8.28220859 L17.5062155,9.27110429 L7.60344828,9.27110429 L7.60344828,8.28220859 Z" id="Fill-257" fill="#A8B6B9" sketch:type="MSShapeGroup"></path>
                <path d="M7.60344828,10.8588957 L17.5062155,10.8588957 L17.5062155,11.8477914 L7.60344828,11.8477914 L7.60344828,10.8588957 Z" id="Fill-258" fill="#A8B6B9" sketch:type="MSShapeGroup"></path>
                <path d="M3.43965517,13.4355828 L17.5337328,13.4355828 L17.5337328,14.4244785 L3.43965517,14.4244785 L3.43965517,13.4355828 Z" id="Fill-259" fill="#A8B6B9" sketch:type="MSShapeGroup"></path>
                <path d="M3.43965517,16.196319 L17.5337328,16.196319 L17.5337328,17.1852147 L3.43965517,17.1852147 L3.43965517,16.196319 Z" id="Fill-260" fill="#A8B6B9" sketch:type="MSShapeGroup"></path>
                <path d="M3.43965517,18.7730061 L10.4866034,18.7730061 L10.4866034,19.7620859 L3.43965517,19.7620859 L3.43965517,18.7730061 Z" id="Fill-261" fill="#A8B6B9" sketch:type="MSShapeGroup"></path>
                <path d="M3.80172414,11.8452147 L3.80172414,8.28220859 L4.72717241,8.28220859 L5.4552931,9.58785276 C5.66330172,9.96331288 5.87131034,10.4074233 6.02718103,10.8090184 L6.04293103,10.8090184 C5.99097414,10.338589 5.97540517,9.85748466 5.97540517,9.31822086 L5.97540517,8.28220859 L6.70316379,8.28220859 L6.70316379,11.8452147 L5.87131034,11.8452147 L5.12237069,10.4707362 C4.9145431,10.0901227 4.68571552,9.63018405 4.51409483,9.21257669 L4.49852586,9.21791411 C4.51916379,9.68834356 4.52984483,10.1906135 4.52984483,10.7720245 L4.52984483,11.8452147 L3.80172414,11.8452147" id="Fill-262" fill="#A8B6B9" sketch:type="MSShapeGroup"></path>
                <path d="M20.9024224,13.0742945 L17.2417241,9.29042945 L17.5263103,9.29042945 L17.5263103,8.30153374 L16.2849569,8.30153374 L14.6637931,6.62576687 L20.9024224,6.62576687 L20.9024224,13.0742945" id="Fill-263" fill="#CDD0D1" sketch:type="MSShapeGroup"></path>
                <path d="M17.5344569,9.27110429 L17.2498707,9.27110429 L16.2931034,8.28220859 L17.5344569,8.28220859 L17.5344569,9.27110429" id="Fill-264" fill="#9AA8AB" sketch:type="MSShapeGroup"></path>
                <path d="M14.6637931,0 L14.6762845,6.48699387 L20.9149138,6.48147239 L14.6637931,0" id="Fill-265" fill="#EDEEEC" sketch:type="MSShapeGroup"></path>
            </g>
        </g>
    </g>
</svg>