<?xml version="1.0" encoding="UTF-8" standalone="no"?>
<svg width="24px" height="25px" viewBox="0 0 24 25" version="1.1" xmlns="http://www.w3.org/2000/svg" xmlns:xlink="http://www.w3.org/1999/xlink" xmlns:sketch="http://www.bohemiancoding.com/sketch/ns">
    <!-- Generator: Sketch 3.4 (15575) - http://www.bohemiancoding.com/sketch -->
    <title>icon_activite</title>
    <desc>Created with Sketch.</desc>
    <defs></defs>
    <g id="Projets" stroke="none" stroke-width="1" fill="none" fill-rule="evenodd" sketch:type="MSPage">
        <g id="0206-Drawer" sketch:type="MSArtboardGroup" transform="translate(-36.000000, -268.000000)" fill="#FFFFFF">
            <g id="Drawer" sketch:type="MSLayerGroup">
                <g id="activites" transform="translate(36.000000, 268.000000)" sketch:type="MSShapeGroup">
                    <g id="icon_activite">
                        <path d="M5,1.391 L5,8.29 L14,7.391 L14,2.29 L5,1.391 L5,1.391 Z M4.5,9.34 C4.377,9.34 4.257,9.29 4.164,9.21 C4.06,9.12 4,8.98 4,8.84 L4,0.841 C4,0.7 4.06,0.561 4.164,0.471 C4.269,0.38 4.409,0.331 4.55,0.34 L14.55,1.34 C14.806,1.37 15,1.58 15,1.84 L15,7.84 C15,8.101 14.806,8.311 14.55,8.341 L4.55,9.34 L4.5,9.34 L4.5,9.34 Z" id="Fill-9461"></path>
                        <path d="M2.5,6.841 C2.224,6.841 2,6.62 2,6.34 L2,3.34 C2,3.061 2.224,2.84 2.5,2.84 C2.776,2.84 3,3.061 3,3.34 L3,6.34 C3,6.62 2.776,6.841 2.5,6.841" id="Fill-9462"></path>
                        <path d="M0.5,7.84 C0.224,7.84 0,7.62 0,7.34 L0,2.341 C0,2.061 0.224,1.84 0.5,1.84 C0.776,1.84 1,2.061 1,2.341 L1,7.34 C1,7.62 0.776,7.84 0.5,7.84" id="Fill-9463"></path>
                        <path d="M10,22.391 L19,23.29 L19,16.391 L10,17.29 L10,22.391 L10,22.391 Z M19.5,24.34 L19.45,24.34 L9.45,23.341 C9.194,23.311 9,23.101 9,22.84 L9,16.84 C9,16.58 9.194,16.37 9.45,16.34 L19.45,15.34 C19.589,15.331 19.73,15.38 19.836,15.471 C19.94,15.561 20,15.7 20,15.841 L20,23.84 C20,23.98 19.94,24.12 19.836,24.21 C19.743,24.29 19.623,24.34 19.5,24.34 L19.5,24.34 Z" id="Fill-9464"></path>
                        <path d="M21.5,21.841 C21.224,21.841 21,21.62 21,21.34 L21,18.34 C21,18.061 21.224,17.84 21.5,17.84 C21.776,17.84 22,18.061 22,18.34 L22,21.34 C22,21.62 21.776,21.841 21.5,21.841" id="Fill-9465"></path>
                        <path d="M23.5,22.84 C23.224,22.84 23,22.62 23,22.34 L23,17.341 C23,17.061 23.224,16.84 23.5,16.84 C23.776,16.84 24,17.061 24,17.341 L24,22.34 C24,22.62 23.776,22.84 23.5,22.84" id="Fill-9466"></path>
                        <path d="M9,20.341 L3.721,20.341 C2.497,20.341 1.456,19.551 1.189,18.431 C0.945,17.391 1.446,16.42 2.497,15.891 L20.518,7.88 C21.13,7.58 21.415,7.061 21.278,6.49 C21.148,5.931 20.605,5.341 19.721,5.341 L15,5.341 C14.724,5.341 14.5,5.12 14.5,4.84 C14.5,4.561 14.724,4.34 15,4.34 L19.721,4.34 C20.944,4.34 21.985,5.13 22.252,6.261 C22.496,7.291 21.995,8.26 20.944,8.791 L2.924,16.801 C2.312,17.101 2.026,17.62 2.163,18.201 C2.293,18.75 2.836,19.34 3.721,19.34 L9,19.34 C9.276,19.34 9.5,19.561 9.5,19.84 C9.5,20.12 9.276,20.341 9,20.341" id="Fill-9467"></path>
                        <path d="M6.5,8.84 C6.224,8.84 6,8.62 6,8.341 L6,1.34 C6,1.061 6.224,0.841 6.5,0.841 C6.776,0.841 7,1.061 7,1.34 L7,8.341 C7,8.62 6.776,8.84 6.5,8.84" id="Fill-9468"></path>
                        <path d="M17.5,23.84 C17.224,23.84 17,23.62 17,23.341 L17,16.34 C17,16.061 17.224,15.841 17.5,15.841 C17.776,15.841 18,16.061 18,16.34 L18,23.341 C18,23.62 17.776,23.84 17.5,23.84" id="Fill-9469"></path>
                    </g>
                </g>
            </g>
        </g>
    </g>
</svg>