<?xml version="1.0" encoding="UTF-8" standalone="no"?>
<svg width="22px" height="20px" viewBox="0 0 22 20" version="1.1" xmlns="http://www.w3.org/2000/svg" xmlns:xlink="http://www.w3.org/1999/xlink" xmlns:sketch="http://www.bohemiancoding.com/sketch/ns">
    <!-- Generator: Sketch 3.4 (15575) - http://www.bohemiancoding.com/sketch -->
    <title>icon_folder</title>
    <desc>Created with Sketch.</desc>
    <defs></defs>
    <g id="Projets" stroke="none" stroke-width="1" fill="none" fill-rule="evenodd" sketch:type="MSPage">
        <g id="0206-Drawer" sketch:type="MSArtboardGroup" transform="translate(-35.000000, -142.000000)" fill="#FFFFFF">
            <path d="M39.0448805,146.063819 C39.2920895,145.9798 39.5663562,145.955513 39.8283239,145.954856 C41.8939331,145.946323 43.9601573,145.950262 46.0263815,145.950262 C48.1651695,145.950262 50.3039576,145.950262 52.4427456,145.949605 C52.5159244,145.949605 52.5891031,145.948949 52.661052,145.939759 C52.8701342,145.913503 52.9863593,145.775658 52.9888191,145.551824 C52.9912789,145.263006 52.9992732,144.51208 52.9894341,144.342728 C52.9894341,143.824168 52.3843256,143.899655 52.0897656,143.899655 C48.8686697,143.900311 45.6475738,143.900311 42.4258629,143.900311 C42.3686727,143.900311 42.3114826,143.902281 42.2542925,143.898342 C41.8871687,143.875368 41.5950686,143.669257 41.5052862,143.328583 C41.46101,143.162513 41.4204234,142.672179 41.4087394,142.48576 C41.3829116,142.074851 41.1842835,142.02037 41.0274718,142.017088 C40.8872638,142.014462 40.7605846,142.005272 40.6136121,142.004616 C39.0264321,141.998052 37.4392521,142.000021 35.8520722,142.001334 C35.7850429,142.001334 35.7173986,142.010524 35.6503693,142.021683 C35.2512683,142.085354 35.0034444,142.393207 35.0034444,142.823152 C35.0034444,147.172486 35.0034444,151.522477 35.0046743,155.871811 C35.0046743,155.955174 34.9702372,156.066763 35.0883072,156.090393 C35.2137565,156.11468 35.196538,155.985369 35.230975,155.913164 C35.2352797,155.903974 35.2358946,155.892159 35.2389693,155.881 C36.0230276,153.128041 36.8083158,150.375082 37.5899143,147.62081 C37.81683,146.822623 38.3161675,146.31194 39.0448805,146.063819 Z M56.2283635,147.448832 L56.2277486,147.448832 C50.9656413,147.450145 45.7041489,147.450145 40.4420417,147.450145 C39.7170183,147.450145 39.0768578,147.955576 38.8640859,148.695344 C38.440387,150.168971 38.016688,151.642599 37.5929891,153.116226 C36.8255344,155.787791 36.0593096,158.459356 35.2893951,161.130264 C35.2334348,161.325217 35.2463487,161.539861 35.3465852,161.710526 C35.372413,161.771571 35.5919493,162 35.7739738,162 C37.2947394,161.998687 38.886224,161.998687 40.4697143,161.998687 L44.2313492,161.998687 L48.0495594,161.998687 L51.8517809,161.998687 C52.5528212,161.998687 53.1726885,161.509666 53.378696,160.793529 C53.7495094,159.505664 54.1203229,158.217143 54.4911363,156.928621 C55.3157811,154.061448 56.1391961,151.193618 56.9656858,148.326445 C57.0191862,148.140026 57.0142666,147.967392 56.9214095,147.798039 C56.7645979,147.512503 56.5149291,147.448832 56.2283635,147.448832 Z" id="icon_folder" sketch:type="MSShapeGroup"></path>
        </g>
    </g>
</svg>