<?xml version="1.0" encoding="UTF-8" standalone="no"?>
<svg width="20px" height="20px" viewBox="0 0 20 20" version="1.1" xmlns="http://www.w3.org/2000/svg" xmlns:xlink="http://www.w3.org/1999/xlink" xmlns:sketch="http://www.bohemiancoding.com/sketch/ns">
    <!-- Generator: Sketch 3.4 (15575) - http://www.bohemiancoding.com/sketch -->
    <title>icon_tool</title>
    <desc>Created with Sketch.</desc>
    <defs></defs>
    <g id="Projets" stroke="none" stroke-width="1" fill="none" fill-rule="evenodd" sketch:type="MSPage">
        <g id="0206-Drawer" sketch:type="MSArtboardGroup" transform="translate(-35.000000, -331.000000)">
            <g id="Drawer" sketch:type="MSLayerGroup">
                <g id="tools" transform="translate(35.000000, 331.000000)" sketch:type="MSShapeGroup">
                    <g id="icon_tool">
                        <path d="M13.2881204,4.52186388 C13.2886822,3.4349705 13.2894963,2.34807712 13.2864655,1.26118374 C13.2851382,0.862544527 13.3833571,0.519022634 13.7603052,0.287017177 C14.4066916,-0.110340235 15.2455338,0.257535821 15.335789,0.984315347 C15.3503891,1.09711358 15.3530437,1.21247541 15.3530437,1.32527364 C15.3535449,2.39112839 15.3538569,3.45680035 15.3538366,4.52235854 C16.4208898,4.52286899 17.4878737,4.52380538 18.5548577,4.5253113 C18.7355912,4.5253113 18.9240155,4.53592956 19.0944947,4.59167541 C19.5149244,4.73236731 19.7956382,5.21417071 19.7456481,5.6601375 C19.6930944,6.13928634 19.3265001,6.52154358 18.8663346,6.5719803 C18.730464,6.58658041 18.5933116,6.58658041 18.4561592,6.58658041 C17.4222466,6.58757354 16.3876164,6.58782357 15.3533425,6.58788651 C15.3528322,7.6553934 15.3518957,8.72283087 15.3503891,9.79026833 C15.3503891,9.97100186 15.3397709,10.1594262 15.284025,10.3299053 C15.1433331,10.7503351 14.6615297,11.0310489 14.2155629,10.9810588 C13.7364141,10.928505 13.3541568,10.5619108 13.3037201,10.1017453 C13.28912,9.96587467 13.28912,9.82872227 13.28912,9.69156988 C13.2881265,8.65726662 13.2878767,7.62224518 13.2878139,6.58758071 C12.2004669,6.58701893 11.11312,6.58620284 10.0257731,6.58923497 C9.62713385,6.59056225 9.28361195,6.49234338 9.0516065,6.11539526 C8.65424908,5.46900888 9.02212514,4.63016659 9.74890467,4.5399114 C9.8617029,4.5253113 9.97706473,4.52265674 10.089863,4.52265674 C11.1561087,4.52215534 12.2221715,4.52184335 13.2881204,4.52186388 Z" id="field" fill="#4CBD62"></path>
                        <path d="M8.87749008,19.9980091 C6.27415813,19.9980091 3.67082618,20.0006636 1.06749422,19.9966818 C0.317642333,19.9953545 -0.160468361,19.3648955 0.0497465285,18.6640906 C0.156135771,18.3070517 0.38685943,18.0694682 0.732944919,17.9712493 C0.852152143,17.9380673 0.980331953,17.9261217 1.10466637,17.9261217 C6.28953971,17.9234672 11.4731312,17.9247944 16.6580046,17.9221399 C16.9797359,17.9221399 17.2694223,17.997795 17.4950187,18.2539604 C17.7680417,18.5632171 17.8500768,18.9242379 17.7116426,19.3197679 C17.5744902,19.715298 17.2912128,19.9382814 16.8938554,19.9900454 C16.769521,20.0059728 16.642623,19.9980091 16.5170068,19.9980091 L8.87749008,19.9980091 Z M4.44272266,9.28263214 L8.20958564,9.28263214 L8.29545833,9.28263214 C8.65881514,9.28661399 8.89079955,9.69408959 8.88887703,10.3245486 C8.88823619,10.9510257 8.65432925,11.3624832 8.29225412,11.3624832 C5.72953125,11.3638105 3.16680837,11.3624832 0.60408549,11.3638105 C0.388122096,11.3651378 0.197151499,11.2695734 0.0747508815,10.8461705 C-0.094431124,10.2581845 0.051680608,9.49632456 0.370819391,9.33837799 C0.45284703,9.29723225 0.540001397,9.28528671 0.624592399,9.28528671 C1.89730249,9.28130486 3.17001257,9.28263214 4.44272266,9.28263214 Z M8.87236289,15.6822371 C6.32671185,15.6822371 3.77977902,15.6848916 1.23412798,15.6756006 C1.00084072,15.6756006 0.750890092,15.639764 0.536829809,15.5481816 C0.167671954,15.3889077 -0.0476701275,14.9163953 0.0100107872,14.510247 C0.0715370963,14.0748984 0.370196055,13.7324597 0.775244256,13.6501682 C0.930341827,13.6183134 1.09184839,13.602386 1.25079135,13.602386 C6.34209343,13.6010587 11.4333955,13.5997314 16.5246976,13.6037133 C16.7054311,13.6037133 16.8912918,13.6196407 17.0668982,13.6621137 C17.468101,13.7590053 17.7808597,14.2076266 17.7757325,14.6509389 C17.7718871,15.0862874 17.4770736,15.5136722 17.0848434,15.6145457 C16.8989826,15.6623278 16.7015857,15.6782552 16.509316,15.6795825 C13.963665,15.6835643 11.4180139,15.6822371 8.87236289,15.6822371 Z M2.77547934,6.51048921 C2.04599786,6.51048921 1.31651638,6.50783465 0.587034895,6.51181649 C0.383382525,6.51314377 0.207887878,6.4149249 0.0893635078,6.03797678 C-0.113634032,5.3915904 0.0743024,4.55274811 0.445591448,4.46249293 C0.503216556,4.44789282 0.562151326,4.44523826 0.619776434,4.44523826 C2.0617138,4.44391098 3.50299633,4.44391098 4.94427886,4.44789282 C5.03661,4.44789282 5.13287012,4.45851108 5.21996261,4.51425693 C5.43474711,4.65494883 5.57815504,5.13675224 5.55261664,5.58271902 C5.52576858,6.06186786 5.33848698,6.44412511 5.10340273,6.49456182 C5.03399067,6.50916193 4.96392378,6.50916193 4.89385689,6.50916193 C4.18794931,6.51048921 3.48138691,6.51048921 2.77547934,6.51048921 Z" id="Path" fill="#FFFFFF"></path>
                    </g>
                </g>
            </g>
        </g>
    </g>
</svg>