<?xml version="1.0" encoding="UTF-8" standalone="no"?>
<svg width="23px" height="22px" viewBox="0 0 23 22" version="1.1" xmlns="http://www.w3.org/2000/svg" xmlns:xlink="http://www.w3.org/1999/xlink" xmlns:sketch="http://www.bohemiancoding.com/sketch/ns">
    <!-- Generator: Sketch 3.4 (15575) - http://www.bohemiancoding.com/sketch -->
    <title>icon_discussion</title>
    <desc>Created with Sketch.</desc>
    <defs></defs>
    <g id="Projets" stroke="none" stroke-width="1" fill="none" fill-rule="evenodd" sketch:type="MSPage">
        <g id="0206-Drawer" sketch:type="MSArtboardGroup" transform="translate(-31.000000, -206.000000)" fill="#FFFFFF">
            <g id="Drawer" sketch:type="MSLayerGroup">
                <g id="icon_discussion" transform="translate(31.000000, 206.000000)" sketch:type="MSShapeGroup">
                    <path d="M21.5377576,0.18242236 C21.2011212,0.0649068323 20.8198788,0.0273291925 20.4588485,0.0266459627 C14.7088485,0.0170807453 8.95884848,0.0198136646 3.20884848,0.0204968944 C3.07990909,0.0204968944 2.9509697,0.0239130435 2.8220303,0.0307453416 C1.64833333,0.0942857143 0.697666667,1.07267081 0.696969697,2.2184472 C0.696969697,5.93726708 0.696272727,9.65540373 0.698363636,13.3749068 C0.699060606,13.5293168 0.708121212,13.6878261 0.745060606,13.8367702 C1.01269697,14.9080745 1.90760606,15.5749068 3.08966667,15.5769565 C6.0190303,15.5803727 8.94909091,15.5776398 11.8784545,15.5776398 L12.2729394,15.5776398 L12.2729394,15.9629814 C12.2729394,17.6280124 12.2722424,19.2923602 12.2736364,20.9573913 C12.2736364,21.3427329 12.4311515,21.6447205 12.811697,21.7847826 C13.1706364,21.916646 13.4947273,21.8223602 13.7651515,21.56 C13.892,21.4363354 14.0083939,21.3031056 14.1282727,21.1732919 C15.8051818,19.3654658 17.4834848,17.5590062 19.1548182,15.7463975 C19.3011818,15.587205 19.4468485,15.5154658 19.6663939,15.5257143 C20.033,15.542795 20.401,15.536646 20.768303,15.5270807 C22.0423636,15.492236 23,14.5152174 23,13.2628571 C22.9986061,9.60279503 22.999303,5.94204969 23,2.28198758 C23,1.34322981 22.4389394,0.496024845 21.5377576,0.18242236 L21.5377576,0.18242236 Z M21.5086187,13.1200918 C21.5071864,13.7259257 21.3209935,13.9126601 20.7101374,13.9147661 C20.2303325,13.9168722 19.7512437,13.9252963 19.2714389,13.9126601 C18.8947562,13.902832 18.6097378,14.0453398 18.3619579,14.3170174 C17.0206526,15.7849185 15.6736183,17.2472036 14.3287324,18.7115947 C14.2564036,18.7909218 14.1883715,18.8737589 14.1181911,18.9544899 C14.0967073,18.9453638 14.0745074,18.9355357 14.0530236,18.9264095 L14.0530236,18.6413938 L14.0530236,14.9509317 C14.0523075,14.3064873 13.7236053,13.9688208 13.066201,13.9547807 C12.6171895,13.9449525 12.1681781,13.9526746 11.7191667,13.9526746 C8.84176958,13.9519726 5.96437249,13.9526746 3.08625928,13.9519726 C2.98456929,13.9519726 2.88216317,13.9561847 2.78047318,13.9498666 C2.34220364,13.9203822 2.15672682,13.7336478 2.1560107,13.3019121 C2.15243006,12.1014765 2.15457844,10.9010408 2.15457844,9.70060514 C2.15457844,7.21057865 2.15386232,4.71985014 2.15457844,2.22912164 C2.15457844,1.64224198 2.33647462,1.46112361 2.94016943,1.46112361 C8.87900817,1.4597196 14.8178469,1.4597196 20.7566856,1.46322964 C20.9070722,1.46322964 21.0954136,1.45550754 21.1992519,1.53483458 C21.3431934,1.64434801 21.5164961,1.83318847 21.5172122,1.9890345 C21.527238,5.69915292 21.5157799,9.40997335 21.5086187,13.1200918 L21.5086187,13.1200918 Z" id="Fill-1"></path>
                    <path d="M12.0192424,6.50093168 C10.8350909,6.24813665 9.82448485,7.10627329 9.82936364,8.22950311 C9.83284848,9.17099379 10.6392424,9.94440994 11.6129091,9.94031056 C12.7712727,9.93621118 13.6731515,8.8526087 13.3121212,7.67335404 C13.133697,7.09192547 12.6249091,6.63006211 12.0192424,6.50093168 L12.0192424,6.50093168 Z M11.6010606,9.17167702 C11.0497576,9.16757764 10.6085758,8.73509317 10.6085758,8.19944099 C10.6085758,7.65968944 11.0657879,7.2142236 11.614303,7.22037267 C12.1642121,7.22652174 12.603303,7.65968944 12.604,8.19602484 C12.604697,8.74192547 12.1586364,9.1757764 11.6010606,9.17167702 L11.6010606,9.17167702 Z" id="Fill-2"></path>
                    <path d="M16.238697,6.50093168 C15.0545455,6.24813665 14.0439394,7.10627329 14.0481212,8.22950311 C14.0516061,9.17099379 14.858,9.94440994 15.8316667,9.94031056 C16.9907273,9.93621118 17.8919091,8.8526087 17.5308788,7.67335404 C17.3531515,7.09192547 16.8436667,6.63006211 16.238697,6.50093168 L16.238697,6.50093168 Z M15.8198182,9.17167702 C15.2692121,9.16757764 14.8280303,8.73509317 14.8280303,8.19944099 C14.8273333,7.65968944 15.2852424,7.2142236 15.8330606,7.22037267 C16.3829697,7.22652174 16.8220606,7.65968944 16.8227576,8.19602484 C16.8234545,8.74192547 16.3773939,9.1757764 15.8198182,9.17167702 L15.8198182,9.17167702 Z" id="Fill-3"></path>
                    <path d="M7.79212121,6.50093168 C6.6079697,6.24813665 5.59736364,7.10627329 5.60154545,8.22950311 C5.6050303,9.17099379 6.41142424,9.94440994 7.38578788,9.94031056 C8.54484848,9.93621118 9.44533333,8.8526087 9.085,7.67335404 C8.90657576,7.09192547 8.39778788,6.63006211 7.79212121,6.50093168 L7.79212121,6.50093168 Z M7.37393939,9.17167702 C6.82263636,9.16757764 6.38145455,8.73509317 6.38145455,8.19944099 C6.38145455,7.65968944 6.83866667,7.2142236 7.38718182,7.22037267 C7.93709091,7.22652174 8.37618182,7.65968944 8.37687879,8.19602484 C8.37757576,8.74192547 7.93151515,9.1757764 7.37393939,9.17167702 L7.37393939,9.17167702 Z" id="Fill-4"></path>
                </g>
            </g>
        </g>
    </g>
</svg>